<svg data-v-0dd9719b="" version="1.0" xmlns="http://www.w3.org/2000/svg" xmlns:xlink="http://www.w3.org/1999/xlink" width="100%" height="100%" viewBox="0 0 340.000000 250.000000" preserveAspectRatio="xMidYMid meet" color-interpolation-filters="sRGB" style="margin: auto;"> <rect data-v-0dd9719b="" x="0" y="0" width="100%" height="100%" fill="#fff" fill-opacity="1" class="background"></rect> <rect data-v-0dd9719b="" x="0" y="0" width="100%" height="100%" fill="url(#watermark)" fill-opacity="1" class="watermarklayer"></rect> <g data-v-0dd9719b="" fill="#333333" class="icon-text-wrapper icon-svg-group iconsvg" transform="translate(84.45500183105469,94.99129676818848)"><g class="iconsvg-imagesvg" transform="translate(0,0)"><g><rect fill="#333333" fill-opacity="0" stroke-width="2" x="0" y="0" width="60" height="60.01740504746377" class="image-rect"></rect> <svg x="0" y="0" width="60" height="60.01740504746377" filtersec="colorsb5168694963" class="image-svg-svg primary" style="overflow: visible;"><svg xmlns="http://www.w3.org/2000/svg" viewBox="0 -0.020957399159669876 99.99223327636719 100.02095794677734"><g><g><path d="M49.75 100H50a50 50 0 0 0 47.47-65.68C75.55 50.73 56 85.14 49.75 100zM76.32 18.71C77.1 18.6 31.59 28.14 0 49.36V50a53.55 53.55 0 0 0 4.76 21.21c28.47-26 50.59-36.89 86.82-49A50 50 0 0 0 3.23 32.3C31.57 20.23 64 19.63 76.32 18.71z" fill="#f15a24"></path><path d="M96.21 30.88a49.72 49.72 0 0 0-3-6C50.11 38 21.59 64.82 9.43 79.21A50.16 50.16 0 0 0 33 97c8.46-14.7 29.73-43.51 63.21-66.12z" fill="#619a3f"></path></g></g></svg></svg> <!----></g></g> <g transform="translate(67,7.568702697753906)"><g data-gra="path-name" fill-rule="" class="tp-name iconsvg-namesvg"><g transform="scale(1)"><g><path d="M2.75-3.49L2.75-3.49Q2.75-5.74 2.65-8 2.55-10.25 2.43-12.52 2.31-14.79 2.21-17.09 2.11-19.39 2.11-21.77L2.11-21.77Q2.11-24.26 2.27-26.82 2.43-29.38 2.9-31.77 3.37-34.16 4.19-36.25 5.01-38.35 6.33-39.9 7.65-41.46 9.55-42.36 11.46-43.27 14.03-43.27L14.03-43.27Q16.49-43.27 18.31-42.5 20.13-41.72 21.4-40.37 22.68-39.02 23.48-37.21 24.29-35.39 24.74-33.28 25.2-31.17 25.37-28.89 25.55-26.6 25.55-24.35L25.55-24.35Q25.55-23.76 25.53-23.32 25.52-22.88 25.5-22.37 25.49-21.86 25.44-21.15 25.4-20.45 25.34-19.32 25.28-18.19 25.21-16.55 25.14-14.91 25.05-12.51 24.96-10.11 24.84-6.84 24.73-3.57 24.61 0.79L24.61 0.79 15.85 0.47Q16.35-2.87 16.74-6.23 17.14-9.58 17.4-12.48L17.4-12.48Q15.15-12.66 13.21-12.66L13.21-12.66Q12.22-12.66 11.34-12.63 10.46-12.6 9.79-12.54L9.79-12.54Q9.87-11.02 9.99-9.32 10.11-7.62 10.25-5.89 10.4-4.16 10.58-2.48 10.75-0.79 10.99 0.73L10.99 0.73 2.7 0.97Q2.75-0.12 2.75-1.25 2.75-2.37 2.75-3.49ZM9.43-18.72L9.43-18.72Q10.31-18.66 11.16-18.66 12.01-18.66 12.83-18.66L12.83-18.66Q15.97-18.66 17.87-18.84L17.87-18.84Q18.05-20.92 18.24-23.03 18.43-25.14 18.43-27.54L18.43-27.54Q18.43-32.61 17.39-35.26 16.35-37.91 14.33-37.91L14.33-37.91Q13.21-37.91 12.28-37.12 11.34-36.33 10.65-34.67 9.96-33.02 9.57-30.5 9.17-27.98 9.17-24.55L9.17-24.55Q9.17-23.35 9.24-21.99 9.32-20.63 9.43-18.72ZM56.16 0.79L47.64 0.53Q47.02-0.32 46.71-1.38 46.41-2.43 46.26-3.38 46.11-4.34 46.1-5.04 46.08-5.74 46.08-5.89L46.08-5.89Q46.08-6.83 46.01-8.13 45.94-9.43 45.67-10.83 45.41-12.22 44.93-13.58 44.44-14.94 43.61-16.03 42.77-17.11 41.56-17.77 40.34-18.43 38.64-18.43L38.64-18.43Q38.41-18.43 38.16-18.4 37.91-18.37 37.68-18.37L37.68-18.37 37.68-0.12 29.59 0.06Q29.77-0.97 29.9-2.36 30.03-3.75 30.12-5.32 30.21-6.88 30.26-8.58 30.32-10.28 30.35-11.92 30.38-13.56 30.4-15.1 30.41-16.64 30.41-17.87L30.41-17.87Q30.41-18.81 30.4-20.63 30.38-22.44 30.34-24.71 30.29-26.98 30.25-29.49 30.21-31.99 30.15-34.29 30.09-36.59 30.01-38.48 29.94-40.37 29.88-41.4L29.88-41.4Q31.49-41.72 33.34-41.88 35.19-42.04 36.77-42.13L36.77-42.13Q38.61-42.25 40.43-42.25L40.43-42.25Q43.36-42.36 45.94-41.76 48.52-41.16 50.46-39.74 52.41-38.32 53.57-36.08 54.73-33.84 54.79-30.73L54.79-30.73Q54.32-28.54 53.29-26.66L53.29-26.66Q52.85-25.87 52.25-25.03 51.65-24.2 50.84-23.47 50.04-22.73 49.01-22.13 47.99-21.53 46.73-21.18L46.73-21.18Q48.6-20.45 49.78-19.47 50.95-18.49 51.62-17.27 52.29-16.05 52.6-14.66 52.91-13.27 53.04-11.73 53.17-10.2 53.26-8.57 53.35-6.94 53.58-5.27L53.58-5.27Q53.82-4.01 54.17-2.87L54.17-2.87Q54.49-1.88 54.98-0.86 55.46 0.15 56.16 0.79L56.16 0.79ZM47.34-30.35L47.34-30.35Q47.31-32.23 46.52-33.72L46.52-33.72Q46.17-34.34 45.63-34.95 45.09-35.57 44.28-36.04 43.48-36.5 42.35-36.8 41.22-37.09 39.73-37.09L39.73-37.09Q38.58-37.09 37.21-36.77L37.21-36.77 37.32-23.53Q37.85-23.44 38.38-23.39 38.91-23.35 39.35-23.35L39.35-23.35Q40.75-23.35 41.84-23.64 42.92-23.94 43.74-24.43 44.56-24.93 45.15-25.55 45.73-26.16 46.14-26.84L46.14-26.84Q47.08-28.39 47.34-30.35ZM66.47 0.29L66.47 0.29 58.74 1.08Q58.8-0.88 58.84-3 58.89-5.13 58.92-7.24 58.95-9.35 58.97-11.38 59-13.42 59-15.23L59-15.23Q59.03-19.51 59.03-23.64L59.03-23.64Q59-27.33 58.95-30.79L58.95-30.79Q58.92-32.26 58.87-33.81 58.83-35.36 58.77-36.86 58.71-38.35 58.64-39.68 58.56-41.02 58.45-42.07L58.45-42.07 65.83-42.42Q65.77-40.61 65.73-38.69 65.68-36.77 65.65-34.88 65.63-32.99 65.61-31.23 65.6-29.47 65.6-27.95L65.6-27.95Q65.6-20.3 65.79-13.37 65.98-6.45 66.47 0.29ZM79.01 0.29L79.01 0.29 71.28 1.08Q71.34-0.88 71.38-3 71.43-5.13 71.46-7.24 71.48-9.35 71.51-11.38 71.54-13.42 71.54-15.23L71.54-15.23Q71.57-19.51 71.57-23.64L71.57-23.64Q71.54-27.33 71.48-30.79L71.48-30.79Q71.46-32.26 71.41-33.81 71.37-35.36 71.31-36.86 71.25-38.35 71.18-39.68 71.1-41.02 70.99-42.07L70.99-42.07 78.37-42.42Q78.31-40.61 78.27-38.69 78.22-36.77 78.19-34.88 78.16-32.99 78.15-31.23 78.13-29.47 78.13-27.95L78.13-27.95Q78.13-20.3 78.33-13.37 78.52-6.45 79.01 0.29ZM106.2 0.67L106.2 0.67Q104.03 0.67 102.16 0.81 100.28 0.94 98.12 1.2L98.12 1.2Q97.09-1.99 96.02-5.16 94.95-8.32 93.78-11.57L93.78-11.57Q92.61-8.2 91.51-4.89 90.41-1.58 89.27 1.61L89.27 1.61 81.06 1.2Q82.41-1.41 83.67-3.98 84.93-6.56 86.09-9.17 87.25-11.78 88.34-14.46 89.44-17.14 90.47-19.98L90.47-19.98Q88.39-25.14 86.03-30.51 83.67-35.89 81.01-41.81L81.01-41.81Q82.15-41.84 83.17-41.88 84.2-41.92 85.18-41.97 86.16-42.01 87.14-42.04 88.13-42.07 89.15-42.13L89.15-42.13Q90.15-38.5 91.26-35.16 92.37-31.82 93.49-28.62L93.49-28.62Q94.48-31.73 95.46-35.07 96.45-38.41 97.44-42.13L97.44-42.13Q100.02-41.95 102.36-41.95L102.36-41.95Q103.27-41.95 104.15-41.95 105.03-41.95 106.03-42.01L106.03-42.01Q103.18-36.53 100.96-31.1 98.73-25.66 96.77-20.21L96.77-20.21Q99.14-14.47 101.54-9.33 103.95-4.19 106.2 0.67Z" transform="translate(-2.109999895095825, 43.27000045776367)"></path></g> <!----> <!----> <!----> <!----> <!----> <!----> <!----></g></g> <!----></g></g><defs v-gra="od"></defs></svg>